<svg xmlns="http://www.w3.org/2000/svg" width="524" height="594" viewBox="0 0 524 594" role="img" aria-label="???????? ????? QR???">
  <rect width="100%" height="100%" rx="28" fill="#ffffff"/>
  <rect x="40" y="38" width="444" height="444" fill="#ffffff"/>
  <g fill="#111111">
    <rect x="88" y="86" width="12" height="12"/><rect x="100" y="86" width="12" height="12"/><rect x="112" y="86" width="12" height="12"/><rect x="124" y="86" width="12" height="12"/><rect x="136" y="86" width="12" height="12"/><rect x="148" y="86" width="12" height="12"/><rect x="160" y="86" width="12" height="12"/><rect x="220" y="86" width="12" height="12"/><rect x="244" y="86" width="12" height="12"/><rect x="280" y="86" width="12" height="12"/><rect x="304" y="86" width="12" height="12"/><rect x="316" y="86" width="12" height="12"/><rect x="352" y="86" width="12" height="12"/><rect x="364" y="86" width="12" height="12"/><rect x="376" y="86" width="12" height="12"/><rect x="388" y="86" width="12" height="12"/><rect x="400" y="86" width="12" height="12"/><rect x="412" y="86" width="12" height="12"/><rect x="424" y="86" width="12" height="12"/><rect x="88" y="98" width="12" height="12"/><rect x="160" y="98" width="12" height="12"/><rect x="184" y="98" width="12" height="12"/><rect x="208" y="98" width="12" height="12"/><rect x="232" y="98" width="12" height="12"/><rect x="256" y="98" width="12" height="12"/><rect x="268" y="98" width="12" height="12"/><rect x="280" y="98" width="12" height="12"/><rect x="292" y="98" width="12" height="12"/><rect x="304" y="98" width="12" height="12"/><rect x="316" y="98" width="12" height="12"/><rect x="352" y="98" width="12" height="12"/><rect x="424" y="98" width="12" height="12"/><rect x="88" y="110" width="12" height="12"/><rect x="112" y="110" width="12" height="12"/><rect x="124" y="110" width="12" height="12"/><rect x="136" y="110" width="12" height="12"/><rect x="160" y="110" width="12" height="12"/><rect x="208" y="110" width="12" height="12"/><rect x="244" y="110" width="12" height="12"/><rect x="256" y="110" width="12" height="12"/><rect x="280" y="110" width="12" height="12"/><rect x="316" y="110" width="12" height="12"/><rect x="352" y="110" width="12" height="12"/><rect x="376" y="110" width="12" height="12"/><rect x="388" y="110" width="12" height="12"/><rect x="400" y="110" width="12" height="12"/><rect x="424" y="110" width="12" height="12"/><rect x="88" y="122" width="12" height="12"/><rect x="112" y="122" width="12" height="12"/><rect x="124" y="122" width="12" height="12"/><rect x="136" y="122" width="12" height="12"/><rect x="160" y="122" width="12" height="12"/><rect x="208" y="122" width="12" height="12"/><rect x="220" y="122" width="12" height="12"/><rect x="244" y="122" width="12" height="12"/><rect x="256" y="122" width="12" height="12"/><rect x="268" y="122" width="12" height="12"/><rect x="304" y="122" width="12" height="12"/><rect x="352" y="122" width="12" height="12"/><rect x="376" y="122" width="12" height="12"/><rect x="388" y="122" width="12" height="12"/><rect x="400" y="122" width="12" height="12"/><rect x="424" y="122" width="12" height="12"/><rect x="88" y="134" width="12" height="12"/><rect x="112" y="134" width="12" height="12"/><rect x="124" y="134" width="12" height="12"/><rect x="136" y="134" width="12" height="12"/><rect x="160" y="134" width="12" height="12"/><rect x="184" y="134" width="12" height="12"/><rect x="196" y="134" width="12" height="12"/><rect x="208" y="134" width="12" height="12"/><rect x="220" y="134" width="12" height="12"/><rect x="232" y="134" width="12" height="12"/><rect x="256" y="134" width="12" height="12"/><rect x="316" y="134" width="12" height="12"/><rect x="352" y="134" width="12" height="12"/><rect x="376" y="134" width="12" height="12"/><rect x="388" y="134" width="12" height="12"/><rect x="400" y="134" width="12" height="12"/><rect x="424" y="134" width="12" height="12"/><rect x="88" y="146" width="12" height="12"/><rect x="160" y="146" width="12" height="12"/><rect x="208" y="146" width="12" height="12"/><rect x="220" y="146" width="12" height="12"/><rect x="244" y="146" width="12" height="12"/><rect x="292" y="146" width="12" height="12"/><rect x="304" y="146" width="12" height="12"/><rect x="316" y="146" width="12" height="12"/><rect x="352" y="146" width="12" height="12"/><rect x="424" y="146" width="12" height="12"/><rect x="88" y="158" width="12" height="12"/><rect x="100" y="158" width="12" height="12"/><rect x="112" y="158" width="12" height="12"/><rect x="124" y="158" width="12" height="12"/><rect x="136" y="158" width="12" height="12"/><rect x="148" y="158" width="12" height="12"/><rect x="160" y="158" width="12" height="12"/><rect x="184" y="158" width="12" height="12"/><rect x="208" y="158" width="12" height="12"/><rect x="232" y="158" width="12" height="12"/><rect x="256" y="158" width="12" height="12"/><rect x="280" y="158" width="12" height="12"/><rect x="304" y="158" width="12" height="12"/><rect x="328" y="158" width="12" height="12"/><rect x="352" y="158" width="12" height="12"/><rect x="364" y="158" width="12" height="12"/><rect x="376" y="158" width="12" height="12"/><rect x="388" y="158" width="12" height="12"/><rect x="400" y="158" width="12" height="12"/><rect x="412" y="158" width="12" height="12"/><rect x="424" y="158" width="12" height="12"/><rect x="196" y="170" width="12" height="12"/><rect x="208" y="170" width="12" height="12"/><rect x="220" y="170" width="12" height="12"/><rect x="232" y="170" width="12" height="12"/><rect x="244" y="170" width="12" height="12"/><rect x="256" y="170" width="12" height="12"/><rect x="280" y="170" width="12" height="12"/><rect x="292" y="170" width="12" height="12"/><rect x="328" y="170" width="12" height="12"/><rect x="88" y="182" width="12" height="12"/><rect x="112" y="182" width="12" height="12"/><rect x="136" y="182" width="12" height="12"/><rect x="160" y="182" width="12" height="12"/><rect x="256" y="182" width="12" height="12"/><rect x="268" y="182" width="12" height="12"/><rect x="292" y="182" width="12" height="12"/><rect x="304" y="182" width="12" height="12"/><rect x="316" y="182" width="12" height="12"/><rect x="328" y="182" width="12" height="12"/><rect x="376" y="182" width="12" height="12"/><rect x="412" y="182" width="12" height="12"/><rect x="100" y="194" width="12" height="12"/><rect x="124" y="194" width="12" height="12"/><rect x="136" y="194" width="12" height="12"/><rect x="196" y="194" width="12" height="12"/><rect x="220" y="194" width="12" height="12"/><rect x="256" y="194" width="12" height="12"/><rect x="268" y="194" width="12" height="12"/><rect x="340" y="194" width="12" height="12"/><rect x="352" y="194" width="12" height="12"/><rect x="388" y="194" width="12" height="12"/><rect x="424" y="194" width="12" height="12"/><rect x="88" y="206" width="12" height="12"/><rect x="100" y="206" width="12" height="12"/><rect x="112" y="206" width="12" height="12"/><rect x="124" y="206" width="12" height="12"/><rect x="136" y="206" width="12" height="12"/><rect x="148" y="206" width="12" height="12"/><rect x="160" y="206" width="12" height="12"/><rect x="172" y="206" width="12" height="12"/><rect x="184" y="206" width="12" height="12"/><rect x="196" y="206" width="12" height="12"/><rect x="208" y="206" width="12" height="12"/><rect x="220" y="206" width="12" height="12"/><rect x="232" y="206" width="12" height="12"/><rect x="244" y="206" width="12" height="12"/><rect x="292" y="206" width="12" height="12"/><rect x="340" y="206" width="12" height="12"/><rect x="364" y="206" width="12" height="12"/><rect x="400" y="206" width="12" height="12"/><rect x="412" y="206" width="12" height="12"/><rect x="424" y="206" width="12" height="12"/><rect x="112" y="218" width="12" height="12"/><rect x="172" y="218" width="12" height="12"/><rect x="184" y="218" width="12" height="12"/><rect x="196" y="218" width="12" height="12"/><rect x="208" y="218" width="12" height="12"/><rect x="268" y="218" width="12" height="12"/><rect x="292" y="218" width="12" height="12"/><rect x="304" y="218" width="12" height="12"/><rect x="316" y="218" width="12" height="12"/><rect x="376" y="218" width="12" height="12"/><rect x="412" y="218" width="12" height="12"/><rect x="88" y="230" width="12" height="12"/><rect x="112" y="230" width="12" height="12"/><rect x="136" y="230" width="12" height="12"/><rect x="148" y="230" width="12" height="12"/><rect x="160" y="230" width="12" height="12"/><rect x="196" y="230" width="12" height="12"/><rect x="220" y="230" width="12" height="12"/><rect x="280" y="230" width="12" height="12"/><rect x="292" y="230" width="12" height="12"/><rect x="316" y="230" width="12" height="12"/><rect x="328" y="230" width="12" height="12"/><rect x="340" y="230" width="12" height="12"/><rect x="352" y="230" width="12" height="12"/><rect x="388" y="230" width="12" height="12"/><rect x="412" y="230" width="12" height="12"/><rect x="424" y="230" width="12" height="12"/><rect x="88" y="242" width="12" height="12"/><rect x="112" y="242" width="12" height="12"/><rect x="124" y="242" width="12" height="12"/><rect x="148" y="242" width="12" height="12"/><rect x="196" y="242" width="12" height="12"/><rect x="208" y="242" width="12" height="12"/><rect x="232" y="242" width="12" height="12"/><rect x="244" y="242" width="12" height="12"/><rect x="268" y="242" width="12" height="12"/><rect x="280" y="242" width="12" height="12"/><rect x="292" y="242" width="12" height="12"/><rect x="328" y="242" width="12" height="12"/><rect x="340" y="242" width="12" height="12"/><rect x="352" y="242" width="12" height="12"/><rect x="388" y="242" width="12" height="12"/><rect x="424" y="242" width="12" height="12"/><rect x="88" y="254" width="12" height="12"/><rect x="160" y="254" width="12" height="12"/><rect x="196" y="254" width="12" height="12"/><rect x="208" y="254" width="12" height="12"/><rect x="220" y="254" width="12" height="12"/><rect x="256" y="254" width="12" height="12"/><rect x="268" y="254" width="12" height="12"/><rect x="280" y="254" width="12" height="12"/><rect x="304" y="254" width="12" height="12"/><rect x="328" y="254" width="12" height="12"/><rect x="340" y="254" width="12" height="12"/><rect x="376" y="254" width="12" height="12"/><rect x="388" y="254" width="12" height="12"/><rect x="412" y="254" width="12" height="12"/><rect x="424" y="254" width="12" height="12"/><rect x="172" y="266" width="12" height="12"/><rect x="184" y="266" width="12" height="12"/><rect x="208" y="266" width="12" height="12"/><rect x="244" y="266" width="12" height="12"/><rect x="256" y="266" width="12" height="12"/><rect x="280" y="266" width="12" height="12"/><rect x="292" y="266" width="12" height="12"/><rect x="304" y="266" width="12" height="12"/><rect x="352" y="266" width="12" height="12"/><rect x="388" y="266" width="12" height="12"/><rect x="412" y="266" width="12" height="12"/><rect x="160" y="278" width="12" height="12"/><rect x="256" y="278" width="12" height="12"/><rect x="268" y="278" width="12" height="12"/><rect x="292" y="278" width="12" height="12"/><rect x="328" y="278" width="12" height="12"/><rect x="340" y="278" width="12" height="12"/><rect x="352" y="278" width="12" height="12"/><rect x="388" y="278" width="12" height="12"/><rect x="412" y="278" width="12" height="12"/><rect x="424" y="278" width="12" height="12"/><rect x="124" y="290" width="12" height="12"/><rect x="172" y="290" width="12" height="12"/><rect x="196" y="290" width="12" height="12"/><rect x="220" y="290" width="12" height="12"/><rect x="232" y="290" width="12" height="12"/><rect x="256" y="290" width="12" height="12"/><rect x="268" y="290" width="12" height="12"/><rect x="292" y="290" width="12" height="12"/><rect x="304" y="290" width="12" height="12"/><rect x="328" y="290" width="12" height="12"/><rect x="340" y="290" width="12" height="12"/><rect x="352" y="290" width="12" height="12"/><rect x="388" y="290" width="12" height="12"/><rect x="400" y="290" width="12" height="12"/><rect x="424" y="290" width="12" height="12"/><rect x="88" y="302" width="12" height="12"/><rect x="112" y="302" width="12" height="12"/><rect x="124" y="302" width="12" height="12"/><rect x="148" y="302" width="12" height="12"/><rect x="160" y="302" width="12" height="12"/><rect x="184" y="302" width="12" height="12"/><rect x="196" y="302" width="12" height="12"/><rect x="220" y="302" width="12" height="12"/><rect x="244" y="302" width="12" height="12"/><rect x="304" y="302" width="12" height="12"/><rect x="340" y="302" width="12" height="12"/><rect x="364" y="302" width="12" height="12"/><rect x="412" y="302" width="12" height="12"/><rect x="424" y="302" width="12" height="12"/><rect x="100" y="314" width="12" height="12"/><rect x="184" y="314" width="12" height="12"/><rect x="208" y="314" width="12" height="12"/><rect x="268" y="314" width="12" height="12"/><rect x="292" y="314" width="12" height="12"/><rect x="316" y="314" width="12" height="12"/><rect x="340" y="314" width="12" height="12"/><rect x="352" y="314" width="12" height="12"/><rect x="376" y="314" width="12" height="12"/><rect x="388" y="314" width="12" height="12"/><rect x="412" y="314" width="12" height="12"/><rect x="88" y="326" width="12" height="12"/><rect x="148" y="326" width="12" height="12"/><rect x="160" y="326" width="12" height="12"/><rect x="172" y="326" width="12" height="12"/><rect x="184" y="326" width="12" height="12"/><rect x="196" y="326" width="12" height="12"/><rect x="220" y="326" width="12" height="12"/><rect x="280" y="326" width="12" height="12"/><rect x="292" y="326" width="12" height="12"/><rect x="328" y="326" width="12" height="12"/><rect x="340" y="326" width="12" height="12"/><rect x="352" y="326" width="12" height="12"/><rect x="364" y="326" width="12" height="12"/><rect x="376" y="326" width="12" height="12"/><rect x="184" y="338" width="12" height="12"/><rect x="196" y="338" width="12" height="12"/><rect x="244" y="338" width="12" height="12"/><rect x="268" y="338" width="12" height="12"/><rect x="280" y="338" width="12" height="12"/><rect x="292" y="338" width="12" height="12"/><rect x="304" y="338" width="12" height="12"/><rect x="316" y="338" width="12" height="12"/><rect x="328" y="338" width="12" height="12"/><rect x="376" y="338" width="12" height="12"/><rect x="400" y="338" width="12" height="12"/><rect x="412" y="338" width="12" height="12"/><rect x="424" y="338" width="12" height="12"/><rect x="88" y="350" width="12" height="12"/><rect x="100" y="350" width="12" height="12"/><rect x="112" y="350" width="12" height="12"/><rect x="124" y="350" width="12" height="12"/><rect x="136" y="350" width="12" height="12"/><rect x="148" y="350" width="12" height="12"/><rect x="160" y="350" width="12" height="12"/><rect x="196" y="350" width="12" height="12"/><rect x="220" y="350" width="12" height="12"/><rect x="232" y="350" width="12" height="12"/><rect x="256" y="350" width="12" height="12"/><rect x="268" y="350" width="12" height="12"/><rect x="280" y="350" width="12" height="12"/><rect x="304" y="350" width="12" height="12"/><rect x="316" y="350" width="12" height="12"/><rect x="328" y="350" width="12" height="12"/><rect x="352" y="350" width="12" height="12"/><rect x="376" y="350" width="12" height="12"/><rect x="388" y="350" width="12" height="12"/><rect x="412" y="350" width="12" height="12"/><rect x="424" y="350" width="12" height="12"/><rect x="88" y="362" width="12" height="12"/><rect x="160" y="362" width="12" height="12"/><rect x="208" y="362" width="12" height="12"/><rect x="244" y="362" width="12" height="12"/><rect x="256" y="362" width="12" height="12"/><rect x="280" y="362" width="12" height="12"/><rect x="292" y="362" width="12" height="12"/><rect x="328" y="362" width="12" height="12"/><rect x="376" y="362" width="12" height="12"/><rect x="388" y="362" width="12" height="12"/><rect x="412" y="362" width="12" height="12"/><rect x="88" y="374" width="12" height="12"/><rect x="112" y="374" width="12" height="12"/><rect x="124" y="374" width="12" height="12"/><rect x="136" y="374" width="12" height="12"/><rect x="160" y="374" width="12" height="12"/><rect x="184" y="374" width="12" height="12"/><rect x="208" y="374" width="12" height="12"/><rect x="220" y="374" width="12" height="12"/><rect x="256" y="374" width="12" height="12"/><rect x="268" y="374" width="12" height="12"/><rect x="304" y="374" width="12" height="12"/><rect x="328" y="374" width="12" height="12"/><rect x="340" y="374" width="12" height="12"/><rect x="352" y="374" width="12" height="12"/><rect x="364" y="374" width="12" height="12"/><rect x="376" y="374" width="12" height="12"/><rect x="412" y="374" width="12" height="12"/><rect x="88" y="386" width="12" height="12"/><rect x="112" y="386" width="12" height="12"/><rect x="124" y="386" width="12" height="12"/><rect x="136" y="386" width="12" height="12"/><rect x="160" y="386" width="12" height="12"/><rect x="196" y="386" width="12" height="12"/><rect x="244" y="386" width="12" height="12"/><rect x="256" y="386" width="12" height="12"/><rect x="268" y="386" width="12" height="12"/><rect x="316" y="386" width="12" height="12"/><rect x="364" y="386" width="12" height="12"/><rect x="376" y="386" width="12" height="12"/><rect x="400" y="386" width="12" height="12"/><rect x="88" y="398" width="12" height="12"/><rect x="112" y="398" width="12" height="12"/><rect x="124" y="398" width="12" height="12"/><rect x="136" y="398" width="12" height="12"/><rect x="160" y="398" width="12" height="12"/><rect x="184" y="398" width="12" height="12"/><rect x="208" y="398" width="12" height="12"/><rect x="232" y="398" width="12" height="12"/><rect x="256" y="398" width="12" height="12"/><rect x="292" y="398" width="12" height="12"/><rect x="316" y="398" width="12" height="12"/><rect x="328" y="398" width="12" height="12"/><rect x="364" y="398" width="12" height="12"/><rect x="376" y="398" width="12" height="12"/><rect x="388" y="398" width="12" height="12"/><rect x="424" y="398" width="12" height="12"/><rect x="88" y="410" width="12" height="12"/><rect x="160" y="410" width="12" height="12"/><rect x="196" y="410" width="12" height="12"/><rect x="232" y="410" width="12" height="12"/><rect x="256" y="410" width="12" height="12"/><rect x="268" y="410" width="12" height="12"/><rect x="328" y="410" width="12" height="12"/><rect x="352" y="410" width="12" height="12"/><rect x="376" y="410" width="12" height="12"/><rect x="412" y="410" width="12" height="12"/><rect x="88" y="422" width="12" height="12"/><rect x="100" y="422" width="12" height="12"/><rect x="112" y="422" width="12" height="12"/><rect x="124" y="422" width="12" height="12"/><rect x="136" y="422" width="12" height="12"/><rect x="148" y="422" width="12" height="12"/><rect x="160" y="422" width="12" height="12"/><rect x="184" y="422" width="12" height="12"/><rect x="196" y="422" width="12" height="12"/><rect x="232" y="422" width="12" height="12"/><rect x="244" y="422" width="12" height="12"/><rect x="280" y="422" width="12" height="12"/><rect x="316" y="422" width="12" height="12"/><rect x="328" y="422" width="12" height="12"/><rect x="340" y="422" width="12" height="12"/><rect x="412" y="422" width="12" height="12"/><rect x="424" y="422" width="12" height="12"/>
  </g>
  <text x="262.0" y="524" text-anchor="middle" font-family="Arial, 'Helvetica Neue', sans-serif" font-size="28" font-weight="700" fill="#24313a">kodomonotabi.net/app</text>
  <text x="262.0" y="560" text-anchor="middle" font-family="Arial, 'Helvetica Neue', sans-serif" font-size="18" fill="#667680">???????? ?????</text>
</svg>
